PathFileType	4	(X/Y/Z)	./001.trc	
DataRate	CameraRate	NumFrames	NumMarkers	Units	OrigDataRate	OrigDataStartFrame	OrigNumFrames	
180	180	4	0	mm	180	833	951	
Frame#	Time	LIAS			RIAS			LIPS			RIPS			LFTC			RFTC			CV7			SJN			TV2			SXS			TV7			LAH			RAH			LPH			RPH			LHGT			LCAJ			LHLE			LUA			LHM2			LUSP			LRSP			RHGT			RCAJ			RHLE			RHME			RUA			RHM2			RUSP			RRSP			LFLE			LTH			LFAL			LTAM			LSK			LFAX			LTTC			LFM5			LFM2			LFM1			LFCC			LDP1			RFLE			RFME			RTH			RFAL			RTAM			RSK			RFAX			RTTC			RFM5			RFM2			RFM1			RFCC			RDP1			LHME				
		X1	Y1	Z1	X2	Y2	Z2	X3	Y3	Z3	X4	Y4	Z4	X5	Y5	Z5	X6	Y6	Z6	X7	Y7	Z7	X8	Y8	Z8	X9	Y9	Z9	X10	Y10	Z10	X11	Y11	Z11	X12	Y12	Z12	X13	Y13	Z13	X14	Y14	Z14	X15	Y15	Z15	X16	Y16	Z16	X17	Y17	Z17	X18	Y18	Z18	X19	Y19	Z19	X20	Y20	Z20	X21	Y21	Z21	X22	Y22	Z22	X23	Y23	Z23	X24	Y24	Z24	X25	Y25	Z25	X26	Y26	Z26	X27	Y27	Z27	X28	Y28	Z28	X29	Y29	Z29	X30	Y30	Z30	X31	Y31	Z31	X32	Y32	Z32	X33	Y33	Z33	X34	Y34	Z34	X35	Y35	Z35	X36	Y36	Z36	X37	Y37	Z37	X38	Y38	Z38	X39	Y39	Z39	X40	Y40	Z40	X41	Y41	Z41	X42	Y42	Z42	X43	Y43	Z43	X44	Y44	Z44	X45	Y45	Z45	X46	Y46	Z46	X47	Y47	Z47	X48	Y48	Z48	X49	Y49	Z49	X50	Y50	Z50	X51	Y51	Z51	X52	Y52	Z52	X53	Y53	Z53	X54	Y54	Z54	X55	Y55	Z55	X56	Y56	Z56		
	
8.330000000000000000e+02	4.622221999999999831e+00	2.713100000000000023e+02	8.893689999999999145e+02	-2.741499999999999915e+01	1.314339999999999975e+02	9.294440000000000737e+02	1.531889999999999930e+02	6.796999999999999886e+01	1.030587999999999965e+03	-1.257880000000000109e+02	4.698999999999999844e+00	1.052366999999999962e+03	-3.865699999999999648e+01	2.676630000000000109e+02	8.140389999999999873e+02	-1.114870000000000090e+02	-1.814500000000000313e+01	8.374420000000000073e+02	1.423329999999999984e+02	1.674539999999999793e+02	1.399677999999999884e+03	-4.696399999999999864e+01	3.032699999999999818e+02	1.297965000000000146e+03	3.749299999999999500e+01	1.169080000000000013e+02	1.334513000000000147e+03	-5.222199999999999420e+01	3.212869999999999777e+02	1.180344000000000051e+03	6.107600000000000051e+01	6.395000000000000995e+01	1.221336000000000013e+03	-6.362400000000000233e+01	2.339249999999999829e+02	1.620031999999999925e+03	-4.454899999999999949e+01	1.763649999999999807e+02	1.586877000000000180e+03	7.422800000000000864e+01	1.871869999999999834e+02	1.545500000000000000e+03	-1.074129999999999967e+02	1.077469999999999999e+02	1.518842999999999847e+03	8.175000000000000711e+00	1.784310000000000116e+02	1.290805999999999813e+03	-1.873420000000000130e+02	3.382470000000000141e+02	1.318762999999999920e+03	-1.698409999999999798e+02	3.774199999999999591e+02	1.027638999999999896e+03	-2.464619999999999891e+02	3.019830000000000041e+02	1.106240999999999985e+03	-2.634600000000000364e+02	4.869339999999999691e+02	1.041458000000000084e+03	4.318399999999999750e+01	4.003979999999999677e+02	9.962189999999999372e+02	1.070999999999999952e+00	4.523960000000000150e+02	1.070159000000000106e+03	-3.416999999999999815e+00	8.295399999999999352e+01	1.340025999999999840e+03	9.720199999999999818e+01	2.009389999999999930e+02	1.372615000000000009e+03	1.185100000000000051e+02	2.272489999999999952e+02	1.087768000000000029e+03	2.973299999999999841e+02	1.788009999999999877e+02	1.040456000000000131e+03	2.027609999999999957e+02	1.330420000000000016e+02	1.190304000000000087e+03	2.503889999999999816e+02	4.006870000000000118e+02	8.111429999999999154e+02	3.351490000000000009e+02	3.047170000000000414e+02	8.418759999999999764e+02	3.218870000000000005e+02	3.731730000000000018e+02	8.669010000000000673e+02	2.656620000000000346e+02	2.424149999999999920e+02	4.545029999999999859e+02	-8.404699999999999704e+01	2.559139999999999873e+02	5.639360000000000355e+02	2.028599999999999781e+01	2.271250000000000000e+02	1.065129999999999910e+02	-3.283899999999999864e+01	1.485929999999999893e+02	1.172159999999999940e+02	4.007000000000000028e+01	2.362509999999999764e+02	2.912880000000000109e+02	1.214600000000000080e+01	2.340619999999999834e+02	3.886580000000000155e+02	-1.039149999999999920e+02	2.243149999999999977e+02	4.376280000000000427e+02	2.713100000000000023e+01	2.984909999999999854e+02	6.395900000000000318e+01	6.819500000000000739e+01	2.639359999999999786e+02	7.722500000000000853e+01	9.756300000000000239e+01	2.187779999999999916e+02	6.129899999999999949e+01	1.227379999999999995e+02	1.374840000000000089e+02	8.536399999999999011e+01	-6.792199999999999704e+01	2.556659999999999968e+02	5.313199999999999790e+01	1.622079999999999984e+02	1.306300000000000061e+01	4.460350000000000250e+02	-4.466000000000000192e+00	1.089860000000000042e+02	4.425419999999999732e+02	9.403000000000000469e+00	3.790299999999999869e+01	6.645199999999999818e+02	1.626370000000000005e+02	-2.338290000000000077e+02	1.589830000000000041e+02	-4.416599999999999682e+01	-1.228479999999999990e+02	1.398069999999999879e+02	-6.094100000000000250e+01	-1.588110000000000070e+02	2.106000000000000227e+02	2.456799999999999784e+01	-1.236680000000000064e+02	4.905630000000000450e+02	7.978200000000001069e+01	-6.987000000000000455e+01	4.073359999999999559e+02	1.062390000000000043e+02	-2.191959999999999980e+02	8.520499999999999829e+01	4.846799999999999642e+01	-1.666800000000000068e+02	8.780100000000000193e+01	5.841299999999999670e+01	-1.261710000000000065e+02	6.843800000000000239e+01	5.218500000000000227e+01	-2.192760000000000105e+02	1.393259999999999934e+02	-1.414360000000000070e+02	-1.071880000000000024e+02	5.412000000000000455e+01	9.479099999999999682e+01	2.765110000000000241e+02	1.028191000000000031e+03	-1.757969999999999970e+02
8.340000000000000000e+02	4.627778000000000169e+00	2.710929999999999609e+02	8.897770000000000437e+02	-2.645599999999999952e+01	1.301599999999999966e+02	9.297160000000000082e+02	1.533100000000000023e+02	6.776699999999999591e+01	1.030234999999999900e+03	-1.260920000000000130e+02	3.969000000000000306e+00	1.051940000000000055e+03	-3.932399999999999807e+01	2.678890000000000100e+02	8.142300000000000182e+02	-1.106499999999999915e+02	-1.919200000000000017e+01	8.371279999999999291e+02	1.416740000000000066e+02	1.658729999999999905e+02	1.399883000000000038e+03	-4.771999999999999886e+01	3.013770000000000095e+02	1.298618999999999915e+03	3.748900000000000432e+01	1.153119999999999976e+02	1.334416999999999916e+03	-5.314499999999999602e+01	3.195370000000000346e+02	1.181125999999999976e+03	6.161500000000000199e+01	6.274299999999999500e+01	1.221047000000000025e+03	-6.454400000000001114e+01	2.331479999999999961e+02	1.620480000000000018e+03	-4.483800000000000097e+01	1.749979999999999905e+02	1.587423000000000002e+03	7.373999999999999488e+01	1.862199999999999989e+02	1.546156000000000176e+03	-1.077690000000000055e+02	1.063190000000000026e+02	1.519678000000000111e+03	7.445000000000000284e+00	1.775440000000000111e+02	1.290467000000000098e+03	-1.877929999999999779e+02	3.372390000000000327e+02	1.318896999999999935e+03	-1.696910000000000025e+02	3.772679999999999723e+02	1.027803999999999860e+03	-2.460670000000000073e+02	3.017090000000000032e+02	1.106211999999999989e+03	-2.630670000000000073e+02	4.884800000000000182e+02	1.037755999999999858e+03	4.269599999999999795e+01	4.014269999999999641e+02	9.933160000000000309e+02	1.061000000000000165e+00	4.534859999999999900e+02	1.067316000000000031e+03	-2.848999999999999755e+00	8.077400000000000091e+01	1.340303999999999860e+03	9.603499999999999659e+01	1.983429999999999893e+02	1.373291999999999916e+03	1.179449999999999932e+02	2.241799999999999784e+02	1.089106999999999971e+03	2.978060000000000400e+02	1.755130000000000052e+02	1.041265000000000100e+03	2.029540000000000077e+02	1.301049999999999898e+02	1.191216000000000122e+03	2.499279999999999973e+02	3.983419999999999845e+02	8.133959999999999582e+02	3.379249999999999545e+02	3.024420000000000073e+02	8.434230000000000018e+02	3.225230000000000246e+02	3.715679999999999836e+02	8.687949999999999591e+02	2.680199999999999818e+02	2.423979999999999961e+02	4.545120000000000005e+02	-8.393399999999999750e+01	2.555790000000000077e+02	5.638290000000000646e+02	2.073799999999999955e+01	2.271589999999999918e+02	1.065200000000000102e+02	-3.283299999999999841e+01	1.485799999999999841e+02	1.172190000000000083e+02	4.008400000000000318e+01	2.361340000000000146e+02	2.913180000000000405e+02	1.222400000000000020e+01	2.340970000000000084e+02	3.886620000000000346e+02	-1.038359999999999985e+02	2.240509999999999877e+02	4.375740000000000123e+02	2.718900000000000006e+01	2.984899999999999523e+02	6.396000000000000085e+01	6.819899999999999807e+01	2.639320000000000164e+02	7.722800000000000864e+01	9.757099999999999795e+01	2.187610000000000241e+02	6.129699999999999704e+01	1.227519999999999953e+02	1.375260000000000105e+02	8.538700000000000045e+01	-6.800799999999999557e+01	2.556640000000000157e+02	5.311299999999999955e+01	1.622220000000000084e+02	1.416899999999999871e+01	4.458570000000000277e+02	-5.400000000000000355e+00	1.087479999999999905e+02	4.425049999999999955e+02	9.239000000000000767e+00	3.714499999999999602e+01	6.642630000000000337e+02	1.623009999999999877e+02	-2.309519999999999982e+02	1.572439999999999998e+02	-4.583599999999999852e+01	-1.197549999999999955e+02	1.386040000000000134e+02	-6.179400000000000404e+01	-1.564989999999999952e+02	2.095660000000000025e+02	2.297700000000000031e+01	-1.233790000000000049e+02	4.898269999999999982e+02	7.789600000000000080e+01	-6.935599999999999454e+01	4.069230000000000018e+02	1.048799999999999955e+02	-2.165499999999999829e+02	8.388500000000000512e+01	4.716399999999999437e+01	-1.641749999999999829e+02	8.675499999999999545e+01	5.742900000000000205e+01	-1.234560000000000031e+02	6.759300000000000352e+01	5.158200000000000074e+01	-2.156150000000000091e+02	1.373870000000000005e+02	-1.428990000000000009e+02	-1.047570000000000050e+02	5.351100000000000279e+01	9.435800000000000409e+01	2.765810000000000173e+02	1.028096000000000004e+03	-1.753029999999999973e+02
8.350000000000000000e+02	4.633333000000000368e+00	2.708629999999999995e+02	8.901960000000000264e+02	-2.546899999999999764e+01	1.284650000000000034e+02	9.302409999999999854e+02	1.532510000000000048e+02	6.755899999999999750e+01	1.029814999999999827e+03	-1.263759999999999906e+02	3.252000000000000224e+00	1.051479000000000042e+03	-3.996700000000000585e+01	2.681290000000000191e+02	8.143849999999999909e+02	-1.097540000000000049e+02	-2.015200000000000102e+01	8.367930000000000064e+02	1.411040000000000134e+02	1.642729999999999961e+02	1.400001999999999953e+03	-4.850899999999999324e+01	2.994309999999999832e+02	1.299284000000000106e+03	3.755799999999999983e+01	1.137330000000000041e+02	1.334216000000000122e+03	-5.403800000000000381e+01	3.177300000000000182e+02	1.181829999999999927e+03	6.231099999999999994e+01	6.153699999999999903e+01	1.220706999999999880e+03	-6.534399999999999409e+01	2.321850000000000023e+02	1.620900000000000091e+03	-4.502500000000000568e+01	1.737429999999999950e+02	1.587973999999999933e+03	7.317999999999999261e+01	1.851250000000000000e+02	1.546861000000000104e+03	-1.081929999999999978e+02	1.048810000000000002e+02	1.520555000000000064e+03	6.815999999999999837e+00	1.766529999999999916e+02	1.290119999999999891e+03	-1.882350000000000136e+02	3.361129999999999995e+02	1.318996000000000095e+03	-1.695629999999999882e+02	3.771009999999999991e+02	1.027962999999999965e+03	-2.455639999999999930e+02	3.014060000000000059e+02	1.106187000000000126e+03	-2.627139999999999986e+02	4.899580000000000268e+02	1.034156000000000176e+03	4.213700000000000045e+01	4.023050000000000068e+02	9.908110000000000355e+02	3.907999999999999918e+00	4.545589999999999691e+02	1.064567999999999984e+03	-2.487000000000000099e+00	7.835999999999999943e+01	1.340548000000000002e+03	9.485300000000000864e+01	1.957639999999999816e+02	1.373939999999999827e+03	1.173730000000000047e+02	2.210060000000000002e+02	1.090400999999999840e+03	2.983419999999999845e+02	1.732009999999999934e+02	1.042148000000000138e+03	2.032879999999999825e+02	1.270529999999999973e+02	1.192101000000000113e+03	2.494039999999999964e+02	3.959719999999999800e+02	8.157299999999999045e+02	3.408509999999999991e+02	3.000490000000000350e+02	8.451449999999999818e+02	3.244359999999999786e+02	3.695430000000000064e+02	8.706500000000000909e+02	2.703059999999999832e+02	2.423659999999999854e+02	4.545159999999999627e+02	-8.382999999999999829e+01	2.553070000000000164e+02	5.637939999999999827e+02	2.115099999999999980e+01	2.271739999999999782e+02	1.065220000000000056e+02	-3.282500000000000284e+01	1.485720000000000027e+02	1.172220000000000084e+02	4.006199999999999761e+01	2.360150000000000148e+02	2.913490000000000464e+02	1.228500000000000014e+01	2.341090000000000089e+02	3.886730000000000018e+02	-1.037840000000000060e+02	2.237899999999999920e+02	4.375200000000000387e+02	2.723499999999999943e+01	2.984800000000000182e+02	6.395900000000000318e+01	6.821000000000000796e+01	2.639239999999999782e+02	7.722800000000000864e+01	9.757899999999999352e+01	2.187560000000000002e+02	6.128900000000000148e+01	1.227639999999999958e+02	1.375540000000000020e+02	8.541299999999999670e+01	-6.815099999999999625e+01	2.556680000000000064e+02	5.310699999999999932e+01	1.622249999999999943e+02	1.527099999999999902e+01	4.456410000000000196e+02	-6.330999999999999517e+00	1.085180000000000007e+02	4.424509999999999650e+02	9.025000000000000355e+00	3.631499999999999773e+01	6.639859999999999900e+02	1.619029999999999916e+02	-2.280949999999999989e+02	1.555630000000000166e+02	-4.743499999999999517e+01	-1.167089999999999890e+02	1.374600000000000080e+02	-6.260100000000000620e+01	-1.545339999999999918e+02	2.083930000000000007e+02	2.191000000000000014e+01	-1.230789999999999935e+02	4.890459999999999923e+02	7.600100000000000477e+01	-6.882800000000000296e+01	4.064499999999999886e+02	1.035210000000000008e+02	-2.140569999999999879e+02	8.243499999999998806e+01	4.583799999999999386e+01	-1.617179999999999893e+02	8.559700000000000841e+01	5.650300000000000011e+01	-1.208780000000000001e+02	6.667199999999999704e+01	5.092099999999999937e+01	-2.119649999999999750e+02	1.355469999999999970e+02	-1.443729999999999905e+02	-1.024260000000000019e+02	5.275699999999999790e+01	9.394199999999999307e+01	2.766569999999999823e+02	1.027881000000000085e+03	-1.748209999999999980e+02
8.360000000000000000e+02	4.638888999999999818e+00	2.706020000000000323e+02	8.906309999999999718e+02	-2.446900000000000119e+01	1.273580000000000041e+02	9.302500000000000000e+02	1.534330000000000211e+02	6.736299999999999955e+01	1.029371999999999844e+03	-1.266340000000000003e+02	2.389000000000000234e+00	1.051017000000000053e+03	-4.081599999999999540e+01	2.683499999999999659e+02	8.145250000000000909e+02	-1.089159999999999968e+02	-2.122500000000000142e+01	8.364390000000000782e+02	1.404600000000000080e+02	1.625089999999999861e+02	1.400192000000000007e+03	-4.918800000000000239e+01	2.974250000000000114e+02	1.299932000000000016e+03	3.758299999999999841e+01	1.120769999999999982e+02	1.334157999999999902e+03	-5.498200000000000642e+01	3.160140000000000100e+02	1.182695000000000164e+03	6.262099999999999511e+01	6.033299999999999841e+01	1.220290000000000191e+03	-6.615000000000000568e+01	2.311960000000000264e+02	1.621358000000000175e+03	-4.536999999999999744e+01	1.723870000000000005e+02	1.588535000000000082e+03	7.292000000000000171e+01	1.840680000000000121e+02	1.547544000000000096e+03	-1.086239999999999952e+02	1.034500000000000028e+02	1.521478000000000065e+03	6.108999999999999986e+00	1.757829999999999870e+02	1.289784999999999854e+03	-1.886670000000000016e+02	3.350029999999999859e+02	1.319121999999999844e+03	-1.694230000000000018e+02	3.769620000000000459e+02	1.028092000000000098e+03	-2.452090000000000032e+02	3.011170000000000186e+02	1.106146999999999935e+03	-2.623289999999999509e+02	4.913990000000000009e+02	1.030686999999999898e+03	4.153699999999999903e+01	4.033509999999999991e+02	9.877609999999999673e+02	8.850000000000000089e-01	4.555620000000000118e+02	1.061912000000000035e+03	-1.750000000000000000e+00	7.598600000000000421e+01	1.340641000000000076e+03	9.379500000000000171e+01	1.931189999999999998e+02	1.374576000000000022e+03	1.167900000000000063e+02	2.178259999999999934e+02	1.091860999999999876e+03	2.989359999999999786e+02	1.708840000000000146e+02	1.042934999999999945e+03	2.036090000000000089e+02	1.239939999999999998e+02	1.192950000000000045e+03	2.488829999999999814e+02	3.935049999999999955e+02	8.179729999999999563e+02	3.435790000000000077e+02	2.975160000000000196e+02	8.469460000000000264e+02	3.273909999999999627e+02	3.674120000000000346e+02	8.725260000000000673e+02	2.726669999999999732e+02	2.423350000000000080e+02	4.545190000000000055e+02	-8.373800000000001376e+01	2.550519999999999925e+02	5.637450000000000045e+02	2.152199999999999847e+01	2.272039999999999793e+02	1.065259999999999962e+02	-3.281400000000000006e+01	1.485569999999999879e+02	1.172249999999999943e+02	4.004899999999999949e+01	2.358930000000000007e+02	2.913919999999999959e+02	1.235500000000000043e+01	2.341219999999999857e+02	3.886870000000000118e+02	-1.037420000000000044e+02	2.235240000000000009e+02	4.374730000000000132e+02	2.727699999999999747e+01	2.984780000000000086e+02	6.396300000000000807e+01	6.822200000000000841e+01	2.639130000000000109e+02	7.722700000000000387e+01	9.758999999999998920e+01	2.187520000000000095e+02	6.128499999999999659e+01	1.227690000000000055e+02	1.376179999999999950e+02	8.544899999999999807e+01	-6.834300000000000352e+01	2.556680000000000064e+02	5.309300000000000352e+01	1.622439999999999998e+02	1.633499999999999730e+01	4.454180000000000064e+02	-7.236000000000000654e+00	1.082740000000000009e+02	4.423990000000000009e+02	8.828000000000001180e+00	3.557999999999999829e+01	6.637030000000000882e+02	1.615219999999999914e+02	-2.252639999999999816e+02	1.539279999999999973e+02	-4.905299999999999727e+01	-1.136709999999999923e+02	1.362299999999999898e+02	-6.336200000000000188e+01	-1.523149999999999977e+02	2.074320000000000164e+02	2.042899999999999849e+01	-1.228089999999999975e+02	4.882830000000000155e+02	7.410999999999999943e+01	-6.829800000000000182e+01	4.060409999999999968e+02	1.021159999999999997e+02	-2.115730000000000075e+02	8.094100000000000250e+01	4.453000000000000114e+01	-1.596020000000000039e+02	8.446999999999999886e+01	5.583899999999999864e+01	-1.184059999999999917e+02	6.562600000000000477e+01	5.023400000000000176e+01	-2.083280000000000030e+02	1.338110000000000070e+02	-1.457940000000000111e+02	-1.002289999999999992e+02	5.183900000000000574e+01	9.342100000000000648e+01	2.767230000000000132e+02	1.027593999999999824e+03	-1.744350000000000023e+02
